<?xml version="1.0" encoding="UTF-8"?>
<svg xmlns="http://www.w3.org/2000/svg" xmlns:xlink="http://www.w3.org/1999/xlink" width="48pt" height="48pt" viewBox="0 0 48 48" version="1.1">
<g id="surface12418934">
<path style=" stroke:none;fill-rule:nonzero;fill:rgb(18.823529%,30.980392%,99.607843%);fill-opacity:1;" d="M 32 42 L 16 42 C 10.5 42 6 37.5 6 32 L 6 16 C 6 10.5 10.5 6 16 6 L 32 6 C 37.5 6 42 10.5 42 16 L 42 32 C 42 37.5 37.5 42 32 42 Z M 32 42 "/>
<path style=" stroke:none;fill-rule:nonzero;fill:rgb(18.823529%,30.980392%,99.607843%);fill-opacity:1;" d="M 6 16 L 6 32 C 6 37.5 10.5 42 16 42 L 32 42 C 37.5 42 42 37.5 42 32 L 42 16 C 42 15 41.898438 14.101562 41.601562 13.199219 C 36 8.699219 28.800781 6 21 6 C 17.300781 6 13.699219 6.601562 10.300781 7.800781 C 7.699219 9.601562 6 12.601562 6 16 Z M 6 16 "/>
<path style=" stroke:none;fill-rule:nonzero;fill:rgb(38.431373%,0%,91.764706%);fill-opacity:1;" d="M 21 8 C 16 8 11.398438 9.199219 7.199219 11.199219 C 6.398438 12.699219 6 14.300781 6 16 L 6 32 C 6 37.5 10.5 42 16 42 L 32 42 C 37.5 42 42 37.5 42 32 L 42 16.199219 C 36.5 11.101562 29.101562 8 21 8 Z M 21 8 "/>
<path style=" stroke:none;fill-rule:nonzero;fill:rgb(40.392157%,22.745098%,71.764706%);fill-opacity:1;" d="M 42 19 C 36.699219 13.5 29.300781 10 21 10 C 15.601562 10 10.5 11.5 6.199219 14.101562 C 6.101562 14.699219 6 15.300781 6 16 L 6 32 C 6 37.5 10.5 42 16 42 L 32 42 C 37.5 42 42 37.5 42 32 Z M 42 19 "/>
<path style=" stroke:none;fill-rule:nonzero;fill:rgb(55.686275%,14.117647%,66.666667%);fill-opacity:1;" d="M 42 22 C 37.101562 15.898438 29.5 12 21 12 C 15.398438 12 10.300781 13.699219 6 16.601562 L 6 32 C 6 37.5 10.5 42 16 42 L 32 42 C 37.5 42 42 37.5 42 32 Z M 42 22 "/>
<path style=" stroke:none;fill-rule:nonzero;fill:rgb(76.078431%,9.411765%,35.686275%);fill-opacity:1;" d="M 42 32 L 42 25.398438 C 37.5 18.601562 29.800781 14 21 14 C 15.398438 14 10.199219 15.898438 6 19 L 6 32 C 6 37.5 10.5 42 16 42 L 32 42 C 37.5 42 42 37.5 42 32 Z M 42 32 "/>
<path style=" stroke:none;fill-rule:nonzero;fill:rgb(84.705882%,10.588235%,37.647059%);fill-opacity:1;" d="M 42 32 L 42 29.601562 C 38.398438 21.601562 30.398438 16 21 16 C 15.300781 16 10 18.101562 6 21.601562 L 6 32 C 6 37.5 10.5 42 16 42 L 32 42 C 37.5 42 42 37.5 42 32 Z M 42 32 "/>
<path style=" stroke:none;fill-rule:nonzero;fill:rgb(96.078431%,0%,34.117647%);fill-opacity:1;" d="M 41.601562 34.800781 C 39.699219 25.199219 31.199219 18 21 18 C 15.101562 18 9.800781 20.398438 6 24.300781 L 6 32 C 6 37.5 10.5 42 16 42 L 32 42 C 36.5 42 40.398438 39 41.601562 34.800781 Z M 41.601562 34.800781 "/>
<path style=" stroke:none;fill-rule:nonzero;fill:rgb(100%,9.019608%,26.666667%);fill-opacity:1;" d="M 39.898438 38 C 39.398438 28 31.199219 20 21 20 C 14.898438 20 9.5 22.898438 6 27.398438 L 6 32 C 6 37.5 10.5 42 16 42 L 32 42 C 35.199219 42 38.101562 40.398438 39.898438 38 Z M 39.898438 38 "/>
<path style=" stroke:none;fill-rule:nonzero;fill:rgb(100%,34.117647%,13.333333%);fill-opacity:1;" d="M 21 22 C 14.5 22 8.898438 25.601562 6 31 L 6 32 C 6 37.5 10.5 42 16 42 L 32 42 C 34.199219 42 36.300781 41.300781 37.898438 40 C 37.898438 39.699219 38 39.300781 38 39 C 38 29.601562 30.398438 22 21 22 Z M 21 22 "/>
<path style=" stroke:none;fill-rule:nonzero;fill:rgb(100%,43.529412%,0%);fill-opacity:1;" d="M 21 24 C 14 24 8.199219 28.699219 6.5 35.199219 C 7.800781 39.199219 11.601562 42 16 42 L 32 42 C 33.398438 42 34.601562 41.699219 35.800781 41.199219 C 35.898438 40.5 36 39.699219 36 39 C 36 30.699219 29.300781 24 21 24 Z M 21 24 "/>
<path style=" stroke:none;fill-rule:nonzero;fill:rgb(100%,59.607843%,0%);fill-opacity:1;" d="M 21 26 C 14.101562 26 8.5 31.300781 8.101562 38 C 9.898438 40.398438 12.800781 42 16 42 L 32 42 C 32.601562 42 33.101562 41.898438 33.699219 41.800781 C 33.898438 40.898438 34 40 34 39 C 34 31.800781 28.199219 26 21 26 Z M 21 26 "/>
<path style=" stroke:none;fill-rule:nonzero;fill:rgb(100%,75.686275%,2.745098%);fill-opacity:1;" d="M 31.601562 42 C 31.898438 41 32 40 32 39 C 32 32.898438 27.101562 28 21 28 C 14.898438 28 10 32.898438 10 39 C 10 39.300781 10 39.699219 10.101562 40 C 11.800781 41.199219 13.800781 42 16 42 Z M 31.601562 42 "/>
<path style=" stroke:none;fill-rule:nonzero;fill:rgb(100%,83.529412%,30.980392%);fill-opacity:1;" d="M 21 30 C 16 30 12 34 12 39 C 12 39.800781 12.101562 40.601562 12.300781 41.300781 C 13.398438 41.800781 14.699219 42 16 42 L 29.5 42 C 29.800781 41.101562 30 40.101562 30 39 C 30 34 26 30 21 30 Z M 21 30 "/>
<path style=" stroke:none;fill-rule:nonzero;fill:rgb(100%,87.843137%,50.980392%);fill-opacity:1;" d="M 21 32.101562 C 17.101562 32.101562 14 35.199219 14 39.101562 C 14 40.101562 14.199219 41 14.601562 41.898438 C 15.101562 42 15.5 42 16 42 L 27.398438 42 C 27.800781 41.101562 28 40.101562 28 39.101562 C 28 35.199219 24.898438 32.101562 21 32.101562 Z M 21 32.101562 "/>
<path style=" stroke:none;fill-rule:nonzero;fill:rgb(100%,92.54902%,70.196078%);fill-opacity:1;" d="M 21 34.101562 C 18.199219 34.101562 16 36.300781 16 39.101562 C 16 40.199219 16.398438 41.199219 17 42 L 25 42 C 25.601562 41.199219 26 40.199219 26 39.101562 C 26 36.300781 23.800781 34.101562 21 34.101562 Z M 21 34.101562 "/>
<path style=" stroke:none;fill-rule:nonzero;fill:rgb(100%,100%,100%);fill-opacity:1;" d="M 30 38 L 18 38 C 13.601562 38 10 34.398438 10 30 L 10 18 C 10 13.601562 13.601562 10 18 10 L 30 10 C 34.398438 10 38 13.601562 38 18 L 38 30 C 38 34.398438 34.398438 38 30 38 Z M 18 12 C 14.699219 12 12 14.699219 12 18 L 12 30 C 12 33.300781 14.699219 36 18 36 L 30 36 C 33.300781 36 36 33.300781 36 30 L 36 18 C 36 14.699219 33.300781 12 30 12 Z M 18 12 "/>
<path style=" stroke:none;fill-rule:nonzero;fill:rgb(100%,100%,100%);fill-opacity:1;" d="M 24 31 C 20.101562 31 17 27.898438 17 24 C 17 20.101562 20.101562 17 24 17 C 27.898438 17 31 20.101562 31 24 C 31 27.898438 27.898438 31 24 31 Z M 24 19 C 21.199219 19 19 21.199219 19 24 C 19 26.800781 21.199219 29 24 29 C 26.800781 29 29 26.800781 29 24 C 29 21.199219 26.800781 19 24 19 Z M 32 16 C 32 16.601562 31.601562 17 31 17 C 30.398438 17 30 16.601562 30 16 C 30 15.398438 30.398438 15 31 15 C 31.601562 15 32 15.398438 32 16 Z M 32 16 "/>
</g>
</svg>
