<svg xmlns="http://www.w3.org/2000/svg" version="1.1" xmlns:xlink="http://www.w3.org/1999/xlink" xmlns:svgjs="http://svgjs.com/svgjs" height="141.3299987792969" width="257.5500183105469"><defs id="SvgjsDefs1430"></defs><g id="SvgjsG1431" rel="mainfill" name="main_text" xmlns:name="main_text" transform="translate(-1.1100000143051147,-130.17999572753905)" fill="#000000"><path d="M10.51 240L10.51 235.96L9.38 235.96L8.51 238.43C7.04 238.43 5.86 238.43 4.40 238.43L4.40 238.30C4.83 238.15 4.94 237.92 4.94 237.51C4.94 232.80 4.94 228.10 4.94 223.39L5.91 222.72L5.91 221.98L1.29 221.98L1.29 222.72L2.26 223.39C2.26 228.43 2.26 233.44 2.26 238.48L1.11 239.25L1.11 240C4.32 240 7.28 240 10.51 240ZM20.95 240L20.95 236.38L19.87 236.38L19.05 238.53L15.22 238.53L15.22 238.41C15.63 238.28 15.73 238.07 15.73 237.69L15.73 232.67L17.84 232.67L18.48 233.86L19.20 233.86L19.20 229.95L18.48 229.95L17.84 231.21L15.73 231.21L15.73 225.22L18.77 225.22L19.43 227.40L20.64 227.40L20.64 223.78L12.37 223.78L12.37 224.40L13.21 225.04L13.21 238.59L12.21 239.31L12.21 240ZM29.54 235.66L30.28 238.84L29.49 239.38L29.49 240L33.68 240L33.68 239.25L32.85 238.71L29.15 223.70L26.66 223.70C25.48 228.43 24.19 234.04 23.06 238.79L22.24 239.25L22.24 240L25.48 240L25.48 239.25L24.63 238.82L25.37 235.66ZM27.46 226.66L29.20 234.27L25.68 234.27C26.27 231.59 26.94 228.66 27.43 226.66ZM39.90 225.27C41.47 225.27 41.95 226.12 41.95 227.56C41.95 228.23 41.95 228.97 41.95 229.67C41.95 231.11 41.39 231.95 39.87 231.95L38.46 231.95C38.46 229.46 38.46 227.76 38.46 225.27ZM41.72 237.89C42.19 239.13 42.34 240.18 43.83 240.15C44.34 240.15 45.06 240.08 45.55 239.85L45.55 238.89C44.83 239.02 44.45 238.17 44.22 237.56C43.86 236.56 43.50 235.58 43.14 234.58C42.88 233.88 42.60 233.44 41.90 233.06C43.37 232.75 44.47 231.65 44.47 229.67C44.47 228.97 44.47 228.23 44.47 227.56C44.47 224.70 42.39 223.78 39.90 223.78L35.19 223.78L35.19 224.47L36.02 225.12C36.02 229.56 36.02 234.11 36.02 238.59L35.04 239.31L35.04 240C36.38 240 38.10 240 39.46 240L39.46 239.31L38.48 238.59C38.48 237.12 38.48 234.78 38.48 233.37C39.82 233.37 40.13 233.70 40.59 234.91ZM50.23 228.59L49.95 226.40C49.97 226.40 50.00 226.38 50.03 226.38L53.68 239.18C53.80 239.67 54.11 240 54.70 240L56.79 240L56.79 225.17L57.63 224.52L57.63 223.78L54.24 223.78L54.24 224.52L55.09 225.17L55.09 232.62C55.09 233.73 55.17 235.17 55.17 236.32L55.12 236.32L54.16 231.93L51.95 224.78C51.72 223.98 51.41 223.80 50.67 223.78L47.66 223.78L47.66 224.47L48.48 225.12L48.48 238.61L47.56 239.25L47.56 240L51.18 240L51.18 239.25L50.23 238.61ZM63.50 225.12L64.32 224.47L64.32 223.78L60.21 223.78L60.21 224.47L61.03 225.12C61.03 229.61 61.03 234.09 61.03 238.59L60.05 239.31L60.05 240C61.39 240 63.14 240 64.45 240L64.45 239.31L63.50 238.59ZM69.61 228.59L69.33 226.40C69.36 226.40 69.38 226.38 69.41 226.38L73.06 239.18C73.19 239.67 73.50 240 74.09 240L76.17 240L76.17 225.17L77.02 224.52L77.02 223.78L73.62 223.78L73.62 224.52L74.47 225.17L74.47 232.62C74.47 233.73 74.55 235.17 74.55 236.32L74.50 236.32L73.55 231.93L71.34 224.78C71.11 223.98 70.80 223.80 70.05 223.78L67.04 223.78L67.04 224.47L67.87 225.12L67.87 238.61L66.94 239.25L66.94 240L70.57 240L70.57 239.25L69.61 238.61ZM82.39 227.94C82.39 225.91 83.34 225.24 84.45 225.24C85.50 225.24 86.58 225.68 86.58 226.99L86.58 228.28L89.10 228.28L89.10 223.75L87.43 223.75L87.22 224.50L87.15 224.50C86.45 223.80 85.35 223.65 84.42 223.65C82.26 223.65 79.85 224.91 79.85 227.94C79.85 230.59 79.85 233.24 79.85 235.89C79.85 238.79 81.85 240.18 84.58 240.18C85.60 240.18 86.74 239.79 87.33 238.87L87.58 240L89.18 240C89.18 237.63 89.18 235.27 89.18 232.93L85.32 232.93L85.32 233.65L86.61 234.47L86.61 236.17C86.61 237.53 86.07 238.59 84.52 238.59C83.21 238.59 82.39 237.79 82.39 235.89ZM99.90 223.60L100.77 226.56L102.01 226.56L101.90 221.98L91.44 221.98L91.34 226.56L92.57 226.56L93.39 223.60L95.32 223.60C95.32 228.51 95.32 233.42 95.32 238.33L94.19 239.13L94.19 240C95.66 240 97.66 240 99.15 240L99.15 239.13L98.02 238.33C98.02 233.42 98.02 228.51 98.02 223.60ZM112.52 240L112.52 236.38L111.44 236.38L110.62 238.53L106.79 238.53L106.79 238.41C107.20 238.28 107.30 238.07 107.30 237.69L107.30 232.67L109.41 232.67L110.05 233.86L110.77 233.86L110.77 229.95L110.05 229.95L109.41 231.21L107.30 231.21L107.30 225.22L110.33 225.22L111.00 227.40L112.21 227.40L112.21 223.78L103.93 223.78L103.93 224.40L104.78 225.04L104.78 238.59L103.78 239.31L103.78 240ZM117.61 236.71L117.61 235.42L114.86 235.42L114.86 236.68C114.86 239.18 116.81 240.26 119.05 240.26C121.23 240.26 123.42 239.31 123.42 236.71L123.42 234.73C123.42 230.44 117.56 231.65 117.56 228.89L117.56 226.92C117.56 225.86 118.07 225.22 119.10 225.22C120.15 225.22 120.75 225.81 120.75 226.92L120.75 228.12L123.24 228.12C123.24 226.66 123.24 225.19 123.24 223.75L121.59 223.75L121.41 224.58L121.31 224.58C120.54 223.75 119.59 223.60 118.71 223.60C116.84 223.60 115.01 224.47 115.01 226.92L115.01 228.89C115.01 232.93 120.82 231.77 120.82 234.76L120.82 236.71C120.82 237.81 120.33 238.61 119.15 238.61C118.17 238.61 117.61 238.07 117.61 236.71ZM133.24 225.30L134.06 227.89L135.22 227.89L135.12 223.78C131.95 223.78 128.79 223.78 125.60 223.78L125.53 227.89L126.68 227.89L127.46 225.30L129.10 225.30C129.10 229.69 129.10 234.06 129.10 238.43L128.12 239.18L128.12 240C129.46 240 131.26 240 132.60 240L132.60 239.18L131.65 238.43C131.65 234.06 131.65 229.69 131.65 225.30ZM140.64 225.12L141.47 224.47L141.47 223.78L137.35 223.78L137.35 224.47L138.17 225.12C138.17 229.61 138.17 234.09 138.17 238.59L137.20 239.31L137.20 240C138.53 240 140.28 240 141.59 240L141.59 239.31L140.64 238.59ZM146.76 228.59L146.48 226.40C146.50 226.40 146.53 226.38 146.56 226.38L150.21 239.18C150.33 239.67 150.64 240 151.23 240L153.32 240L153.32 225.17L154.16 224.52L154.16 223.78L150.77 223.78L150.77 224.52L151.62 225.17L151.62 232.62C151.62 233.73 151.70 235.17 151.70 236.32L151.65 236.32L150.69 231.93L148.48 224.78C148.25 223.98 147.94 223.80 147.20 223.78L144.19 223.78L144.19 224.47L145.01 225.12L145.01 238.61L144.09 239.25L144.09 240L147.71 240L147.71 239.25L146.76 238.61ZM159.54 227.94C159.54 225.91 160.49 225.24 161.59 225.24C162.65 225.24 163.73 225.68 163.73 226.99L163.73 228.28L166.25 228.28L166.25 223.75L164.58 223.75L164.37 224.50L164.29 224.50C163.60 223.80 162.49 223.65 161.57 223.65C159.41 223.65 156.99 224.91 156.99 227.94C156.99 230.59 156.99 233.24 156.99 235.89C156.99 238.79 159.00 240.18 161.72 240.18C162.75 240.18 163.88 239.79 164.47 238.87L164.73 240L166.32 240C166.32 237.63 166.32 235.27 166.32 232.93L162.47 232.93L162.47 233.65L163.75 234.47L163.75 236.17C163.75 237.53 163.21 238.59 161.67 238.59C160.36 238.59 159.54 237.79 159.54 235.89ZM174.42 223.57C176.17 223.57 176.79 224.52 176.79 226.17L176.79 229.38C176.79 231.03 176.12 231.95 174.40 231.95L172.75 231.95C172.75 229.18 172.75 226.38 172.75 223.57ZM179.46 226.17C179.46 223.03 177.17 221.98 174.40 221.98L169.18 221.98L169.18 222.72L170.15 223.39C170.15 228.38 170.15 233.50 170.15 238.48L169.00 239.25L169.00 240C170.49 240 172.42 240 173.88 240L173.88 239.25L172.75 238.48C172.75 236.84 172.75 235.09 172.75 233.44L174.34 233.44C177.17 233.44 179.46 232.60 179.46 229.38ZM186.48 225.27C188.05 225.27 188.53 226.12 188.53 227.56C188.53 228.23 188.53 228.97 188.53 229.67C188.53 231.11 187.97 231.95 186.45 231.95L185.04 231.95C185.04 229.46 185.04 227.76 185.04 225.27ZM188.30 237.89C188.77 239.13 188.92 240.18 190.41 240.15C190.93 240.15 191.65 240.08 192.13 239.85L192.13 238.89C191.41 239.02 191.03 238.17 190.80 237.56C190.44 236.56 190.08 235.58 189.72 234.58C189.46 233.88 189.18 233.44 188.48 233.06C189.95 232.75 191.05 231.65 191.05 229.67C191.05 228.97 191.05 228.23 191.05 227.56C191.05 224.70 188.97 223.78 186.48 223.78L181.77 223.78L181.77 224.47L182.60 225.12C182.60 229.56 182.60 234.11 182.60 238.59L181.62 239.31L181.62 240C182.96 240 184.68 240 186.04 240L186.04 239.31L185.06 238.59C185.06 237.12 185.06 234.78 185.06 233.37C186.40 233.37 186.71 233.70 187.17 234.91ZM200.36 235.66L201.11 238.84L200.31 239.38L200.31 240L204.50 240L204.50 239.25L203.68 238.71L199.97 223.70L197.48 223.70C196.30 228.43 195.01 234.04 193.88 238.79L193.06 239.25L193.06 240L196.30 240L196.30 239.25L195.45 238.82L196.20 235.66ZM198.28 226.66L200.03 234.27L196.50 234.27C197.10 231.59 197.76 228.66 198.25 226.66ZM210.72 225.27C212.29 225.27 212.78 226.12 212.78 227.56C212.78 228.23 212.78 228.97 212.78 229.67C212.78 231.11 212.21 231.95 210.69 231.95L209.28 231.95C209.28 229.46 209.28 227.76 209.28 225.27ZM212.54 237.89C213.01 239.13 213.16 240.18 214.65 240.15C215.17 240.15 215.89 240.08 216.38 239.85L216.38 238.89C215.66 239.02 215.27 238.17 215.04 237.56C214.68 236.56 214.32 235.58 213.96 234.58C213.70 233.88 213.42 233.44 212.72 233.06C214.19 232.75 215.30 231.65 215.30 229.67C215.30 228.97 215.30 228.23 215.30 227.56C215.30 224.70 213.21 223.78 210.72 223.78L206.02 223.78L206.02 224.47L206.84 225.12C206.84 229.56 206.84 234.11 206.84 238.59L205.86 239.31L205.86 240C207.20 240 208.92 240 210.28 240L210.28 239.31L209.31 238.59C209.31 237.12 209.31 234.78 209.31 233.37C210.64 233.37 210.95 233.70 211.41 234.91ZM225.58 225.30L226.40 227.89L227.56 227.89L227.46 223.78C224.29 223.78 221.13 223.78 217.94 223.78L217.87 227.89L219.02 227.89L219.79 225.30L221.44 225.30C221.44 229.69 221.44 234.06 221.44 238.43L220.46 239.18L220.46 240C221.80 240 223.60 240 224.94 240L224.94 239.18L223.98 238.43C223.98 234.06 223.98 229.69 223.98 225.30ZM232.98 225.12L233.80 224.47L233.80 223.78L229.69 223.78L229.69 224.47L230.51 225.12C230.51 229.61 230.51 234.09 230.51 238.59L229.54 239.31L229.54 240C230.87 240 232.62 240 233.93 240L233.93 239.31L232.98 238.59ZM239.10 228.59L238.82 226.40C238.84 226.40 238.87 226.38 238.89 226.38L242.54 239.18C242.67 239.67 242.98 240 243.57 240L245.66 240L245.66 225.17L246.50 224.52L246.50 223.78L243.11 223.78L243.11 224.52L243.96 225.17L243.96 232.62C243.96 233.73 244.04 235.17 244.04 236.32L243.98 236.32L243.03 231.93L240.82 224.78C240.59 223.98 240.28 223.80 239.54 223.78L236.53 223.78L236.53 224.47L237.35 225.12L237.35 238.61L236.43 239.25L236.43 240L240.05 240L240.05 239.25L239.10 238.61ZM251.88 227.94C251.88 225.91 252.83 225.24 253.93 225.24C254.99 225.24 256.07 225.68 256.07 226.99L256.07 228.28L258.59 228.28L258.59 223.75L256.92 223.75L256.71 224.50L256.63 224.50C255.94 223.80 254.83 223.65 253.91 223.65C251.75 223.65 249.33 224.91 249.33 227.94C249.33 230.59 249.33 233.24 249.33 235.89C249.33 238.79 251.34 240.18 254.06 240.18C255.09 240.18 256.22 239.79 256.81 238.87L257.07 240L258.66 240C258.66 237.63 258.66 235.27 258.66 232.93L254.81 232.93L254.81 233.65L256.09 234.47L256.09 236.17C256.09 237.53 255.55 238.59 254.01 238.59C252.70 238.59 251.88 237.79 251.88 235.89Z" fill="#000000" style="fill: rgb(0, 0, 0);"></path></g><g id="SvgjsG1432" rel="mainfill" name="slogan_text" xmlns:name="slogan_text" transform="translate(52.83000335097313,-102.92000122070311)" fill="#000000"><path d="M9.43 223.49L0.40 223.49L0.40 225.31L3.94 225.31L3.94 240L5.90 240L5.90 225.31L9.43 225.31ZM17.69 236.16C17.48 237.74 16.75 238.44 15.17 238.44C13.73 238.44 12.88 237.59 12.88 235.71L12.88 234.58L19.36 234.58L19.36 231.82C19.36 228.94 17.71 227.29 15.14 227.29C12.62 227.29 10.99 228.94 10.99 231.82L10.99 235.71C10.99 238.61 12.59 240.26 15.12 240.26C17.76 240.26 19.34 238.77 19.53 236.16ZM15.17 229.06C16.65 229.06 17.52 229.93 17.52 231.79L17.52 233.04L12.88 233.04L12.88 231.79C12.88 229.93 13.73 229.06 15.17 229.06ZM25.75 240.26C28.30 240.26 29.91 238.63 29.98 235.75L28.11 235.75C28.04 237.59 27.22 238.44 25.75 238.44C24.36 238.44 23.54 237.59 23.54 235.75L23.54 231.77C23.54 229.95 24.36 229.08 25.75 229.08C27.19 229.08 28.02 229.95 28.07 231.77L29.95 231.77C29.86 228.92 28.33 227.29 25.75 227.29C23.25 227.29 21.65 228.92 21.65 231.77L21.65 235.75C21.65 238.63 23.25 240.26 25.75 240.26ZM38.75 227.59L31.01 227.59L31.01 229.32L33.96 229.32L33.96 240L35.80 240L35.80 229.32L38.75 229.32ZM44.43 232.03L42.31 232.03L42.31 227.67L40.47 227.67L40.47 240L44.43 240C46.72 240 48.51 238.35 48.51 235.99C48.51 233.63 46.72 232.03 44.43 232.03ZM50.21 227.67L50.21 240L52.05 240L52.05 227.67ZM44.32 238.28L42.31 238.28L42.31 233.75L44.32 233.75C45.66 233.75 46.63 234.60 46.63 235.97C46.63 237.38 45.66 238.28 44.32 238.28ZM68.00 227.59L60.21 227.59L60.21 240L62.05 240L62.05 229.32L66.13 229.32L66.13 240L68.00 240ZM74.88 240.28C77.48 240.28 79.13 238.66 79.13 235.68L79.13 231.89C79.13 228.92 77.48 227.29 74.88 227.29C72.29 227.29 70.61 228.92 70.61 231.89L70.61 235.68C70.61 238.66 72.29 240.28 74.88 240.28ZM74.88 238.49C73.40 238.49 72.50 237.62 72.50 235.68L72.50 231.89C72.50 229.95 73.40 229.10 74.88 229.10C76.37 229.10 77.26 229.95 77.26 231.89L77.26 235.68C77.26 237.62 76.37 238.49 74.88 238.49ZM94.29 227.41L93.75 227.41L93.75 223.00L91.93 223.00L91.93 227.41L91.39 227.41C88.70 227.41 86.70 229.17 86.70 232.29L86.70 235.31C86.70 238.40 88.73 240.17 91.39 240.17L91.93 240.17L91.93 244.25L93.75 244.25L93.75 240.17L94.29 240.17C96.96 240.17 98.96 238.40 98.96 235.31L98.96 232.29C98.96 229.17 96.96 227.41 94.29 227.41ZM91.39 238.37C89.81 238.37 88.58 237.36 88.58 235.31L88.58 232.29C88.58 230.19 89.81 229.20 91.39 229.20L91.93 229.20L91.93 238.37ZM97.10 235.31C97.10 237.36 95.85 238.37 94.29 238.37L93.75 238.37L93.75 229.20L94.29 229.20C95.87 229.20 97.10 230.19 97.10 232.29ZM101.60 240L103.49 240L106.60 233.66C107.05 232.71 107.64 231.16 107.81 230.61L107.85 230.64C107.78 231.77 107.76 233.07 107.76 234.29L107.76 240L109.55 240L109.55 227.59L107.67 227.59L104.50 234.20C104.17 234.95 103.63 236.32 103.42 236.89L103.37 236.84C103.42 235.71 103.42 234.67 103.42 233.73L103.42 227.59L101.60 227.59ZM118.07 233.49C118.89 233.09 119.67 232.24 119.67 230.85C119.67 228.89 118.07 227.38 115.78 227.38C113.28 227.38 111.86 228.80 111.75 231.25L113.56 231.25C113.66 229.79 114.39 229.10 115.80 229.10C117.12 229.10 117.85 229.88 117.85 230.99C117.85 232.19 117.00 232.83 115.73 232.83L114.13 232.83L114.13 234.36L115.80 234.36C117.36 234.36 118.21 235.12 118.21 236.30C118.21 237.71 117.31 238.49 115.83 238.49C114.25 238.49 113.40 237.67 113.30 236.44L111.49 236.44C111.58 238.68 113.18 240.26 115.83 240.26C118.33 240.26 120.05 238.73 120.05 236.39C120.05 234.98 119.13 233.92 118.07 233.49ZM122.19 240L124.08 240L127.19 233.66C127.64 232.71 128.23 231.16 128.40 230.61L128.44 230.64C128.37 231.77 128.35 233.07 128.35 234.29L128.35 240L130.14 240L130.14 227.59L128.25 227.59L125.09 234.20C124.76 234.95 124.22 236.32 124.01 236.89L123.96 236.84C124.01 235.71 124.01 234.67 124.01 233.73L124.01 227.59L122.19 227.59ZM139.62 240L141.82 240L137.00 232.92L141.23 227.59L138.94 227.59L136.56 230.78C136.01 231.51 135.47 232.29 134.91 233.07L134.91 227.59L133.07 227.59L133.07 240L134.91 240L134.91 235.40L135.80 234.39ZM149.65 236.16C149.43 237.74 148.70 238.44 147.12 238.44C145.68 238.44 144.83 237.59 144.83 235.71L144.83 234.58L151.32 234.58L151.32 231.82C151.32 228.94 149.67 227.29 147.10 227.29C144.58 227.29 142.95 228.94 142.95 231.82L142.95 235.71C142.95 238.61 144.55 240.26 147.08 240.26C149.72 240.26 151.30 238.77 151.49 236.16ZM147.12 229.06C148.61 229.06 149.48 229.93 149.48 231.79L149.48 233.04L144.83 233.04L144.83 231.79C144.83 229.93 145.68 229.06 147.12 229.06Z" fill="#000000" style="fill: rgb(0, 0, 0);"></path></g><g id="SvgjsG1433" rel="mainfill" name="symbol" xmlns:name="symbol_mainfill" transform="translate(90.38212509155274,7.105427357601002e-15) scale(2.4)" fill="#2C2233"><g fill="#2C2233"><path d="M16 32c-1.231 0-3.031-.654-4.609-3.773-.25-.492-.052-1.094.44-1.344.493-.249 1.095-.053 1.344.441.861 1.7 1.89 2.676 2.825 2.676 2.365 0 5-5.75 5-14s-2.635-14-5-14c-1.654 0-3.382 2.84-4.3 7.067-.117.54-.648.883-1.189.765-.54-.117-.882-.649-.765-1.189 1.175-5.412 3.513-8.643 6.254-8.643 3.99 0 7 6.878 7 16 0 9.121-3.01 16-7 16zM11.98 21.587c-.18 0-.362-.048-.526-.15-6.246-3.873-11.45-9.731-9.31-13.437.586-1.018 1.956-2.221 5.218-2.12.552.015.987.476.972 1.027s-.504.981-1.028.972c-1.776-.044-2.985.349-3.43 1.121-1.106 1.916 2.099 6.687 8.632 10.737.469.291.614.907.323 1.377-.189.305-.517.473-.851.473zM24.991 26.125c-.214 0-.437-.006-.667-.018-.552-.029-.976-.5-.947-1.051.029-.553.503-.979 1.051-.947 1.886.104 3.232-.305 3.696-1.109.492-.852.108-2.312-1.053-4.005-.312-.456-.195-1.078.26-1.391.458-.312 1.078-.193 1.391.26 2.098 3.062 1.774 5.027 1.135 6.136-.573.99-1.88 2.125-4.866 2.125zM7.036 26.124c-2.382 0-4.087-.729-4.892-2.124-1.02-1.767-.394-4.248 1.764-6.989 1.964-2.496 5.015-5.008 8.593-7.073 1.54-.889 3.11-1.657 4.67-2.283.513-.204 1.095.043 1.3.556.206.513-.043 1.095-.556 1.301-1.471.59-2.956 1.317-4.414 2.159-3.362 1.941-6.211 4.277-8.021 6.577-1.571 1.994-2.17 3.772-1.604 4.752.566.981 2.406 1.351 4.917.987 2.897-.417 6.345-1.716 9.707-3.657s6.211-4.277 8.021-6.578c1.57-1.995 2.169-3.772 1.603-4.752-.457-.793-1.782-1.2-3.624-1.114-.545.021-1.02-.401-1.045-.954-.025-.551.401-1.019.953-1.044 3.415-.157 4.843 1.063 5.448 2.112 1.02 1.766.394 4.248-1.764 6.989-1.964 2.495-5.015 5.008-8.593 7.073-3.578 2.065-7.279 3.452-10.421 3.905-.726.105-1.408.157-2.042.157zM16 19c-1.654 0-3-1.346-3-3s1.346-3 3-3 3 1.346 3 3-1.346 3-3 3zm0-4c-.551 0-1 .449-1 1s.449 1 1 1 1-.449 1-1-.449-1-1-1z" fill="#2C2233" style="fill: rgb(44, 34, 51);"></path></g></g></svg>