<?xml version="1.0" encoding="UTF-8"?>
<svg xmlns="http://www.w3.org/2000/svg" xmlns:xlink="http://www.w3.org/1999/xlink" width="48pt" height="48pt" viewBox="0 0 48 48" version="1.1">
<g id="surface12419980">
<path style=" stroke:none;fill-rule:nonzero;fill:rgb(0%,0%,0%);fill-opacity:1;" d="M 42 37 C 42 39.800781 39.800781 42 37 42 L 11 42 C 8.199219 42 6 39.800781 6 37 L 6 11 C 6 8.199219 8.199219 6 11 6 L 37 6 C 39.800781 6 42 8.199219 42 11 Z M 42 37 "/>
<path style=" stroke:none;fill-rule:nonzero;fill:rgb(100%,100%,100%);fill-opacity:1;" d="M 26.898438 30.398438 C 28.398438 30.101562 29.800781 29.5 31 28.699219 C 32 28.101562 32.300781 26.800781 31.699219 25.800781 C 31.101562 24.800781 29.800781 24.5 28.800781 25.101562 C 25.898438 26.898438 22.101562 26.898438 19.199219 25.101562 C 18.199219 24.5 16.898438 24.800781 16.300781 25.800781 C 15.699219 26.800781 16 28.101562 17 28.699219 C 18.300781 29.5 19.699219 30.101562 21.101562 30.398438 L 17.101562 34.398438 C 16.300781 35.199219 16.300781 36.5 17.101562 37.398438 C 17.5 37.800781 18 38 18.601562 38 C 19.101562 38 19.699219 37.800781 20.101562 37.398438 L 24 33.5 L 27.898438 37.398438 C 28.699219 38.199219 30 38.199219 30.898438 37.398438 C 31.699219 36.601562 31.699219 35.300781 30.898438 34.398438 Z M 24 10 C 20.101562 10 17 13.101562 17 17 C 17 20.898438 20.101562 24 24 24 C 27.898438 24 31 20.898438 31 17 C 31 13.101562 27.898438 10 24 10 Z M 24 20 C 22.300781 20 21 18.699219 21 17 C 21 15.300781 22.300781 14 24 14 C 25.699219 14 27 15.300781 27 17 C 27 18.699219 25.699219 20 24 20 Z M 24 20 "/>
</g>
</svg>
