<?xml version="1.0" encoding="UTF-8" standalone="no"?>
<svg
   xmlns:dc="http://purl.org/dc/elements/1.1/"
   xmlns:cc="http://creativecommons.org/ns#"
   xmlns:rdf="http://www.w3.org/1999/02/22-rdf-syntax-ns#"
   xmlns:svg="http://www.w3.org/2000/svg"
   xmlns="http://www.w3.org/2000/svg"
   viewBox="0 0 666.66669 893.33331"
   height="893.33331"
   width="666.66669"
   xml:space="preserve"
   id="svg2"
   version="1.1"><metadata
     id="metadata8"><rdf:RDF><cc:Work
         rdf:about=""><dc:format>image/svg+xml</dc:format><dc:type
           rdf:resource="http://purl.org/dc/dcmitype/StillImage" /></cc:Work></rdf:RDF></metadata><defs
     id="defs6" /><g
     transform="matrix(1.3333333,0,0,-1.3333333,0,893.33333)"
     id="g10"><g
       transform="scale(0.1)"
       id="g12"><path
         id="path14"
         style="fill:#15968b;fill-opacity:1;fill-rule:nonzero;stroke:none"
         d="M 5000,0 H 0 V 6700 H 5000 V 0" /><path
         id="path16"
         style="fill:#ffffff;fill-opacity:1;fill-rule:nonzero;stroke:none"
         d="M 3554.51,2004.62 H 1192.7 v 498.36 h 2361.81 v -498.36" /><path
         id="path18"
         style="fill:#b4e5ff;fill-opacity:1;fill-rule:nonzero;stroke:none"
         d="M 3444.42,1947.61 H 1084.36 c -31.48,0 -57.01,25.53 -57.01,57.01 0,31.49 25.53,57.01 57.01,57.01 h 2360.06 c 49.17,0 89.19,40.01 89.19,89.19 v 205.95 c 0,49.18 -40.02,89.19 -89.19,89.19 H 1084.36 c -31.48,0 -57.01,25.52 -57.01,57.01 0,31.48 25.53,57.01 57.01,57.01 h 2360.06 c 112.04,0 203.21,-91.17 203.21,-203.21 v -205.95 c 0,-112.04 -91.17,-203.21 -203.21,-203.21" /><path
         id="path20"
         style="fill:#c5dceb;fill-opacity:1;fill-rule:nonzero;stroke:none"
         d="M 2579.46,2225.29 H 1373.28 c -15.75,0 -28.51,12.75 -28.51,28.5 0,15.76 12.76,28.51 28.51,28.51 h 1206.18 c 15.74,0 28.51,-12.75 28.51,-28.51 0,-15.75 -12.77,-28.5 -28.51,-28.5" /><path
         id="path22"
         style="fill:#c5dceb;fill-opacity:1;fill-rule:nonzero;stroke:none"
         d="M 2835.62,2225.29 H 2673.4 c -15.74,0 -28.51,12.75 -28.51,28.5 0,15.76 12.77,28.51 28.51,28.51 h 162.22 c 15.75,0 28.51,-12.75 28.51,-28.51 0,-15.75 -12.76,-28.5 -28.51,-28.5" /><path
         id="path24"
         style="fill:#ffffff;fill-opacity:1;fill-rule:nonzero;stroke:none"
         d="m 1445.5,1399.99 h 2361.8 v 498.36 H 1445.5 v -498.36" /><path
         id="path26"
         style="fill:#2a3e6b;fill-opacity:1;fill-rule:nonzero;stroke:none"
         d="M 3915.64,1342.98 H 1555.58 c -112.04,0 -203.21,91.17 -203.21,203.21 v 205.95 c 0,112.04 91.17,203.21 203.21,203.21 h 2360.06 c 31.48,0 57.01,-25.53 57.01,-57.01 0,-31.49 -25.53,-57.01 -57.01,-57.01 H 1555.58 c -49.17,0 -89.19,-40.01 -89.19,-89.19 v -205.95 c 0,-49.19 40.02,-89.19 89.19,-89.19 h 2360.06 c 31.48,0 57.01,-25.53 57.01,-57.01 0,-31.48 -25.53,-57.01 -57.01,-57.01" /><path
         id="path28"
         style="fill:#c5dceb;fill-opacity:1;fill-rule:nonzero;stroke:none"
         d="m 3626.74,1620.66 h -830.6 c -15.75,0 -28.51,12.75 -28.51,28.5 0,15.76 12.76,28.51 28.51,28.51 h 830.6 c 15.74,0 28.5,-12.75 28.5,-28.51 0,-15.75 -12.76,-28.5 -28.5,-28.5" /><path
         id="path30"
         style="fill:#c5dceb;fill-opacity:1;fill-rule:nonzero;stroke:none"
         d="m 2664.2,1620.66 h -499.81 c -15.74,0 -28.5,12.75 -28.5,28.5 0,15.76 12.76,28.51 28.5,28.51 h 499.81 c 15.74,0 28.51,-12.75 28.51,-28.51 0,-15.75 -12.77,-28.5 -28.51,-28.5" /><path
         id="path32"
         style="fill:#ffffff;fill-opacity:1;fill-rule:nonzero;stroke:none"
         d="m 1120.48,622.629 h 2361.8 V 1292.03 H 1120.48 V 622.629" /><path
         id="path34"
         style="fill:#44d45c;fill-opacity:1;fill-rule:nonzero;stroke:none"
         d="M 3590.62,565.621 H 1230.57 c -112.05,0 -203.22,91.168 -203.22,203.211 v 377.008 c 0,112.04 91.17,203.21 203.22,203.21 h 2360.05 c 31.48,0 57.01,-25.53 57.01,-57.01 0,-31.49 -25.53,-57.01 -57.01,-57.01 H 1230.57 c -49.18,0 -89.19,-40 -89.19,-89.19 V 768.832 c 0,-49.191 40.01,-89.191 89.19,-89.191 h 2360.05 c 31.48,0 57.01,-25.532 57.01,-57.012 0,-31.481 -25.53,-57.008 -57.01,-57.008" /><path
         id="path36"
         style="fill:#c5dceb;fill-opacity:1;fill-rule:nonzero;stroke:none"
         d="m 3016.67,1071.34 h -830.62 c -15.74,0 -28.51,12.75 -28.51,28.51 0,15.75 12.77,28.5 28.51,28.5 h 830.62 c 15.74,0 28.5,-12.75 28.5,-28.5 0,-15.76 -12.76,-28.51 -28.5,-28.51" /><path
         id="path38"
         style="fill:#c5dceb;fill-opacity:1;fill-rule:nonzero;stroke:none"
         d="m 2054.13,1071.34 h -499.81 c -15.75,0 -28.51,12.75 -28.51,28.51 0,15.75 12.76,28.5 28.51,28.5 h 499.81 c 15.74,0 28.5,-12.75 28.5,-28.5 0,-15.76 -12.76,-28.51 -28.5,-28.51" /><path
         id="path40"
         style="fill:#c5dceb;fill-opacity:1;fill-rule:nonzero;stroke:none"
         d="M 2738.26,900.309 H 1554.32 c -15.75,0 -28.51,12.754 -28.51,28.5 0,15.761 12.76,28.511 28.51,28.511 h 1183.94 c 15.74,0 28.51,-12.75 28.51,-28.511 0,-15.746 -12.77,-28.5 -28.51,-28.5" /><path
         id="path42"
         style="fill:#ff5f4d;fill-opacity:1;fill-rule:nonzero;stroke:none"
         d="M 1652.54,1124.24 V 804.68 c 0,-14.649 15.79,-23.879 28.55,-16.68 L 1804.21,857.422 1927.34,788 c 12.76,-7.199 28.55,2.031 28.55,16.68 v 319.56 h -303.35" /><path
         id="path44"
         style="fill:#ffffff;fill-opacity:1;fill-rule:nonzero;stroke:none"
         d="m 1807.87,4402.08 c -35.34,-78.24 39.86,-164.01 122.05,-139.2 6.6,1.99 12.12,4.46 16.09,7.48 l 410.23,312.48 -175.41,200.06 -363.43,-365.85 c -3.52,-3.54 -6.69,-8.68 -9.53,-14.97" /><path
         id="path46"
         style="fill:#ffffff;fill-opacity:1;fill-rule:nonzero;stroke:none"
         d="m 3223.98,4535.94 c 60.55,-60.86 20.25,-167.57 -65.42,-173.18 -6.88,-0.46 -12.91,-0.08 -17.69,1.35 l -493.82,148.59 94.02,248.91 468.73,-215 c 4.54,-2.08 9.31,-5.78 14.18,-10.67" /><path
         id="path48"
         style="fill:#3d223b;fill-opacity:1;fill-rule:nonzero;stroke:none"
         d="m 2344.21,2564.15 h -71.11 v 0 c -0.73,8.7 -1.76,18.2 -9.9,15.05 l -36.54,-15.05 h -166.89 v 0 0 0 0 c 0,14.42 2.92,25.99 8.21,35.23 5.29,9.23 12.94,16.14 22.39,21.24 9.46,5.1 20.71,8.39 33.21,10.42 12.51,2.02 26.25,2.77 40.68,2.77 h 44.98 44.99 44.99 44.99 v -17.42 -17.41 -17.42 -17.41" /><path
         id="path50"
         style="fill:#2a3e6b;fill-opacity:1;fill-rule:nonzero;stroke:none"
         d="m 2368.68,3156.52 c -31.25,-68.73 -131.56,-68.73 -162.81,0 -2.51,5.52 -4.07,10.6 -4.38,14.98 l -31.21,452.43 h 233.99 l -31.21,-452.43 c -0.31,-4.38 -1.87,-9.46 -4.38,-14.98" /><path
         id="path52"
         style="fill:#2a3e6b;fill-opacity:1;fill-rule:nonzero;stroke:none"
         d="m 2287.27,3241.53 v 0 c -48.16,0 -86.68,-40.05 -84.8,-88.18 l 20.45,-523.69 h 128.71 l 20.45,523.69 c 1.88,48.13 -36.64,88.18 -84.81,88.18" /><path
         id="path54"
         style="fill:#3d223b;fill-opacity:1;fill-rule:nonzero;stroke:none"
         d="m 2586.57,2564.15 h 71.11 v 0 c 0.73,8.7 1.76,18.2 9.9,15.05 l 36.54,-15.05 h 166.89 v 0 0 0 0 c 0,14.42 -2.92,25.99 -8.21,35.23 -5.29,9.23 -12.94,16.14 -22.39,21.24 -9.46,5.1 -20.71,8.39 -33.22,10.42 -12.5,2.02 -26.24,2.77 -40.67,2.77 h -44.98 -44.99 -44.99 -44.99 v -17.42 -17.41 -17.42 -17.41" /><path
         id="path56"
         style="fill:#2a3e6b;fill-opacity:1;fill-rule:nonzero;stroke:none"
         d="m 2562.1,3156.52 c 31.25,-68.73 131.56,-68.73 162.81,0 2.51,5.52 4.07,10.6 4.37,14.98 l 31.22,452.43 h -233.99 l 31.21,-452.43 c 0.31,-4.38 1.87,-9.46 4.38,-14.98" /><path
         id="path58"
         style="fill:#2a3e6b;fill-opacity:1;fill-rule:nonzero;stroke:none"
         d="m 2643.5,3241.53 v 0 c 48.17,0 86.69,-40.05 84.81,-88.18 l -20.45,-523.69 h -128.71 l -20.45,523.69 c -1.88,48.13 36.63,88.18 84.8,88.18" /><path
         id="path60"
         style="fill:#ffffff;fill-opacity:1;fill-rule:nonzero;stroke:none"
         d="M 2993.01,3421.32 H 2493.6 l -28.1,224.57 -28.09,-224.57 H 1938 l 246.4,1353.73 h 562.29 l 246.32,-1353.73" /><path
         id="path62"
         style="fill:#c5dceb;fill-opacity:1;fill-rule:nonzero;stroke:none"
         d="m 2606.56,3856.61 v -107.88 c 0,-57.05 46.42,-103.48 103.48,-103.48 57.05,0 103.47,46.43 103.47,103.48 v 107.88 z m 103.48,-228.97 c -66.77,0 -121.09,54.32 -121.09,121.09 v 125.49 h 242.17 v -125.49 c 0,-66.77 -54.31,-121.09 -121.08,-121.09" /><path
         id="path64"
         style="fill:#c5dceb;fill-opacity:1;fill-rule:nonzero;stroke:none"
         d="m 2113.4,3856.61 v -107.88 c 0,-57.05 46.42,-103.48 103.48,-103.48 57.05,0 103.47,46.43 103.47,103.48 v 107.88 z m 103.48,-228.97 c -66.78,0 -121.09,54.32 -121.09,121.09 v 125.49 h 242.17 v -125.49 c 0,-66.77 -54.31,-121.09 -121.08,-121.09" /><path
         id="path66"
         style="fill:#ffffff;fill-opacity:1;fill-rule:nonzero;stroke:none"
         d="m 2746.24,4765.22 11.9,-194.52 -119.77,-56.36 77.5,-77.5 -246.58,-176.12 276.95,504.5" /><path
         id="path68"
         style="fill:#c5dceb;fill-opacity:1;fill-rule:nonzero;stroke:none"
         d="m 2751.09,4692.95 v 0 c -4.06,0 -7.28,-3.43 -7.03,-7.48 l 6.47,-105.66 c 0.17,-2.88 -1.43,-5.57 -4.04,-6.8 l -111.12,-52.3 c -4.41,-2.08 -5.43,-7.9 -1.98,-11.35 l 65.74,-65.73 c 3.07,-3.08 2.65,-8.19 -0.89,-10.72 L 2465.2,4266.45 c -3.17,-2.26 -3.9,-6.66 -1.64,-9.83 1.37,-1.93 3.54,-2.95 5.74,-2.95 1.41,0 2.85,0.43 4.08,1.31 l 246.59,176.13 c 3.54,2.53 3.96,7.63 0.88,10.71 l -63.32,63.33 c -3.45,3.45 -2.43,9.28 1.98,11.35 l 101.63,47.82 c 2.61,1.23 4.21,3.93 4.03,6.81 l -7.05,115.2 c -0.23,3.72 -3.3,6.62 -7.03,6.62" /><path
         id="path70"
         style="fill:#ffffff;fill-opacity:1;fill-rule:nonzero;stroke:none"
         d="m 2185.3,4765.22 -11.91,-194.52 123.29,-52.84 -81.02,-81.02 246.58,-176.12 -276.94,504.5" /><path
         id="path72"
         style="fill:#c5dceb;fill-opacity:1;fill-rule:nonzero;stroke:none"
         d="m 2232.41,4443.63 69.26,69.25 c 3.52,3.52 2.37,9.49 -2.21,11.46 l -114.17,48.93 c -2.74,1.17 -4.44,3.93 -4.26,6.9 l 6.45,105.3 c 0.24,4.05 -2.97,7.48 -7.04,7.48 v 0 c -3.72,0 -6.8,-2.9 -7.03,-6.62 l -7.05,-115.2 c -0.18,-2.97 1.52,-5.73 4.26,-6.9 l 104.16,-44.64 c 4.58,-1.97 5.73,-7.93 2.21,-11.46 l -66.31,-66.31 c -3.08,-3.08 -2.65,-8.18 0.89,-10.71 l 246.58,-176.13 c 1.24,-0.88 2.67,-1.31 4.09,-1.31 2.2,0 4.36,1.02 5.74,2.95 2.26,3.17 1.53,7.57 -1.64,9.83 l -233.05,166.46 c -3.54,2.53 -3.96,7.64 -0.88,10.72" /><path
         id="path74"
         style="fill:#b4e5ff;fill-opacity:1;fill-rule:nonzero;stroke:none"
         d="m 2747.57,4775.05 -228.88,-396.29 -51.87,-89.83 -51.95,90.01 -228.88,396.11 h 561.58" /><path
         id="path76"
         style="fill:#2a3e6b;fill-opacity:1;fill-rule:nonzero;stroke:none"
         d="m 2480.12,4604.73 38.57,-225.97 -51.87,-89.83 -51.95,90.01 38.57,225.79 -44.74,106.12 h 116.16 l -44.74,-106.12" /><path
         id="path78"
         style="fill:#c5dceb;fill-opacity:1;fill-rule:nonzero;stroke:none"
         d="m 2496.52,4133.9 c 0,-17.12 -13.88,-31 -31,-31 -17.12,0 -31,13.88 -31,31 0,17.12 13.88,31 31,31 17.12,0 31,-13.88 31,-31" /><path
         id="path80"
         style="fill:#c5dceb;fill-opacity:1;fill-rule:nonzero;stroke:none"
         d="m 2496.52,3993 c 0,-17.12 -13.88,-31 -31,-31 -17.12,0 -31,13.88 -31,31 0,17.12 13.88,31 31,31 17.12,0 31,-13.88 31,-31" /><path
         id="path82"
         style="fill:#c5dceb;fill-opacity:1;fill-rule:nonzero;stroke:none"
         d="m 2496.52,3852.1 c 0,-17.12 -13.88,-31 -31,-31 -17.12,0 -31,13.88 -31,31 0,17.12 13.88,31 31,31 17.12,0 31,-13.88 31,-31" /><path
         id="path84"
         style="fill:#ffffff;fill-opacity:1;fill-rule:nonzero;stroke:none"
         d="m 3179.82,5416.12 c -124.21,13.7 -228.08,-18.83 -329.15,51.37 251.57,-47.85 255.26,91.12 373.48,47.26 -95.1,148.91 -280.36,130.51 -462.99,122.11 123.58,56.36 278.49,114.51 414.97,103.34 -156.9,127.8 -336.6,103.21 -508.27,-5.97 46.39,104.36 40.97,157.44 138.86,234.93 -133.12,10.57 -210.62,10.57 -330.39,-190.21 -64.81,109.99 -245.63,242.51 -353.65,268.37 91.81,-116.9 21.36,-192.05 139.18,-313.09 -171.66,109.18 -335.95,99.87 -492.84,-27.94 136.48,11.17 275.97,-13.07 399.54,-69.43 -182.63,8.4 -366.57,-84.67 -461.67,-233.59 118.22,43.86 245.33,65.8 372.17,64.22 -101.07,-70.2 -221.37,-115 -345.58,-128.7 89.1,-53.68 195.35,-81.06 300.67,-77.48 -127.42,-9.67 -244.37,-98.12 -283.26,-214.24 77.48,60.98 186.6,83.41 283.54,58.29 -82.31,-85.02 -111.31,-213.75 -72.87,-323.5 50.96,71.75 101.92,143.51 152.89,215.26 10.72,-73.49 24.89,-132.87 -47.91,-205.67 117.42,-14.09 123.71,40.73 169.09,84.54 132.17,127.62 197.88,423.03 229.23,656.48 30.33,-225.82 66.41,-540.41 235.58,-621.35 117.58,-56.26 89.4,-98.54 91.75,-154.9 89.24,75.15 75.15,164.39 23.08,240.9 50.97,-71.75 206.46,-90.47 257.42,-162.22 38.44,109.75 -95.08,185.44 -177.4,270.46 96.95,25.12 136.86,1.87 214.34,-59.11 -38.88,116.12 -86.63,205.39 -214.06,215.06 105.32,-3.58 195.16,101.13 284.25,154.81" /><path
         id="path86"
         style="fill:#fda26e;fill-opacity:1;fill-rule:nonzero;stroke:none"
         d="m 2745.74,4779.31 c -65.81,-65.81 -180.43,-100.58 -280.26,-100.58 -99.82,0 -209.42,29.82 -280.18,100.58 l 5.07,259.47 9.02,333.24 c 0,73.48 29.8,140.05 77.92,188.17 48.19,48.19 114.69,77.99 188.17,77.99 147.04,0 266.17,-119.2 266.17,-266.16 l 9.02,-333.24 5.07,-259.47" /><path
         id="path88"
         style="fill:#ff5f4d;fill-opacity:1;fill-rule:nonzero;stroke:none"
         d="m 2607.82,5071.85 c -14.81,-64.99 -72.79,-104.74 -142.33,-104.74 -69.44,0 -127.5,39.75 -142.27,104.74 h 284.6" /><path
         id="path90"
         style="fill:#ffffff;fill-opacity:1;fill-rule:nonzero;stroke:none"
         d="m 2530.87,5457.37 129.08,-24.31 c 11.59,-2.18 22.75,5.44 24.93,17.03 v 0 c 2.18,11.58 -5.44,22.74 -17.03,24.92 l -129.07,24.31 c -11.59,2.18 -22.75,-5.44 -24.93,-17.02 v 0 c -2.18,-11.59 5.44,-22.75 17.02,-24.93" /><path
         id="path92"
         style="fill:#ffffff;fill-opacity:1;fill-rule:nonzero;stroke:none"
         d="m 2400.14,5457.37 -129.08,-24.31 c -11.59,-2.18 -22.74,5.44 -24.93,17.03 v 0 c -2.18,11.58 5.45,22.74 17.03,24.92 l 129.08,24.31 c 11.58,2.18 22.74,-5.44 24.92,-17.02 v 0 c 2.18,-11.59 -5.44,-22.75 -17.02,-24.93" /><path
         id="path94"
         style="fill:#ffffff;fill-opacity:1;fill-rule:nonzero;stroke:none"
         d="m 2760.59,5084.45 c 1.52,-3.23 2.85,-6.56 3.89,-9.93 -12.6,-3.85 -25.43,-7.5 -38.48,-10.99 -8,9.42 -15.83,18.96 -23.48,28.59 2.33,-10.93 4.58,-21.89 6.75,-32.86 -7.87,-1.97 -15.85,-3.83 -23.85,-5.67 -8.61,10.64 -16.97,21.41 -25.09,32.31 0.01,-12.53 -0.17,-25.1 -0.56,-37.68 -17.4,-3.44 -35.07,-6.51 -53.08,-9.11 -9.34,7.35 -18.4,14.88 -27.18,22.59 2.39,-8.43 4.8,-16.85 7.25,-25.26 -6.76,-0.85 -13.52,-1.6 -20.38,-2.3 -8.9,14.18 -17.37,28.52 -25.4,43.01 -1.88,-15.27 -4.03,-30.53 -6.44,-45.79 -17.25,-1.19 -34.68,-1.98 -52.33,-2.3 -5.94,15.29 -11.51,30.65 -16.7,46.08 -4.49,-15.41 -9.3,-30.78 -14.43,-46.09 -29.32,0.42 -58.18,2.17 -86.34,5.08 -2.73,12.88 -5.21,25.77 -7.43,38.66 -6.18,-11.94 -12.6,-23.8 -19.25,-35.57 -29.29,3.83 -57.81,8.85 -85.5,14.84 5.29,16.38 10.58,32.76 15.86,49.14 -13.57,-14.71 -27.79,-29.03 -42.64,-42.93 -6.41,1.54 -12.81,3.19 -19.14,4.82 3.52,8.83 7.05,17.66 10.57,26.49 -7.81,-7.75 -15.8,-15.37 -23.96,-22.88 -9.01,2.51 -17.94,5.1 -26.73,7.78 1.05,3.41 2.38,6.74 3.9,9.97 42.94,76.29 171.57,88.64 295.09,91.47 123.55,-2.82 252.14,-15.18 295.08,-91.47" /><path
         id="path96"
         style="fill:#ff5f4d;fill-opacity:1;fill-rule:nonzero;stroke:none"
         d="m 2465.51,5146.06 v 0 c -29.83,0 -54.02,24.18 -54.02,54.01 v 68.1 c 0,29.83 24.19,54.02 54.02,54.02 v 0 c 29.83,0 54.01,-24.19 54.01,-54.02 v -68.1 c 0,-29.83 -24.18,-54.01 -54.01,-54.01" /><path
         id="path98"
         style="fill:#fda26e;fill-opacity:1;fill-rule:nonzero;stroke:none"
         d="m 2409.15,5277.57 c 0,-70.04 -56.78,-126.82 -126.82,-126.82 -70.03,0 -126.81,56.78 -126.81,126.82 0,70.03 56.78,126.81 126.81,126.81 70.04,0 126.82,-56.78 126.82,-126.81" /><path
         id="path100"
         style="fill:#641d0e;fill-opacity:1;fill-rule:nonzero;stroke:none"
         d="m 2282.33,5393.81 c -64.09,0 -116.24,-52.15 -116.24,-116.25 0,-64.09 52.15,-116.24 116.24,-116.24 64.1,0 116.25,52.15 116.25,116.24 0,64.1 -52.15,116.25 -116.25,116.25 z m 0,-253.63 c -75.75,0 -137.38,61.63 -137.38,137.38 0,75.75 61.63,137.38 137.38,137.38 75.76,0 137.38,-61.63 137.38,-137.38 0,-75.75 -61.62,-137.38 -137.38,-137.38" /><path
         id="path102"
         style="fill:#fda26e;fill-opacity:1;fill-rule:nonzero;stroke:none"
         d="m 2521.87,5277.57 c 0,-70.04 56.77,-126.82 126.81,-126.82 70.04,0 126.81,56.78 126.81,126.82 0,70.03 -56.77,126.81 -126.81,126.81 -70.04,0 -126.81,-56.78 -126.81,-126.81" /><path
         id="path104"
         style="fill:#641d0e;fill-opacity:1;fill-rule:nonzero;stroke:none"
         d="m 2648.68,5393.81 c -64.1,0 -116.25,-52.15 -116.25,-116.25 0,-64.09 52.15,-116.24 116.25,-116.24 64.1,0 116.24,52.15 116.24,116.24 0,64.1 -52.14,116.25 -116.24,116.25 z m 0,-253.63 c -75.75,0 -137.38,61.63 -137.38,137.38 0,75.75 61.63,137.38 137.38,137.38 75.75,0 137.38,-61.63 137.38,-137.38 0,-75.75 -61.63,-137.38 -137.38,-137.38" /><path
         id="path106"
         style="fill:#641d0e;fill-opacity:1;fill-rule:nonzero;stroke:none"
         d="m 2519.52,5257.6 c -5.84,0 -10.57,4.74 -10.57,10.57 0,23.96 -19.49,43.45 -43.44,43.45 -23.96,0 -43.45,-19.49 -43.45,-43.45 0,-5.83 -4.73,-10.57 -10.56,-10.57 -5.84,0 -10.57,4.74 -10.57,10.57 0,35.61 28.97,64.58 64.58,64.58 35.6,0 64.58,-28.97 64.58,-64.58 0,-5.83 -4.73,-10.57 -10.57,-10.57" /><path
         id="path108"
         style="fill:#f6f8f3;fill-opacity:1;fill-rule:nonzero;stroke:none"
         d="m 2702.68,5277.57 c 0,-45.39 -36.79,-82.19 -82.18,-82.19 -45.39,0 -82.18,36.8 -82.18,82.19 0,45.38 36.79,82.18 82.18,82.18 45.39,0 82.18,-36.8 82.18,-82.18" /><path
         id="path110"
         style="fill:#2a3e6b;fill-opacity:1;fill-rule:nonzero;stroke:none"
         d="m 2661.91,5276.58 c 0,-22.88 -18.54,-41.42 -41.41,-41.42 -22.87,0 -41.42,18.54 -41.42,41.42 0,22.87 18.55,41.41 41.42,41.41 22.87,0 41.41,-18.54 41.41,-41.41" /><path
         id="path112"
         style="fill:#f6f8f3;fill-opacity:1;fill-rule:nonzero;stroke:none"
         d="m 2661.93,5304.19 c 0,-11.44 -9.28,-20.72 -20.72,-20.72 -11.45,0 -20.73,9.28 -20.73,20.72 0,11.45 9.28,20.73 20.73,20.73 11.44,0 20.72,-9.28 20.72,-20.73" /><path
         id="path114"
         style="fill:#f6f8f3;fill-opacity:1;fill-rule:nonzero;stroke:none"
         d="m 2392.69,5277.57 c 0,-45.39 -36.79,-82.19 -82.18,-82.19 -45.39,0 -82.18,36.8 -82.18,82.19 0,45.38 36.79,82.18 82.18,82.18 45.39,0 82.18,-36.8 82.18,-82.18" /><path
         id="path116"
         style="fill:#2a3e6b;fill-opacity:1;fill-rule:nonzero;stroke:none"
         d="m 2351.92,5276.58 c 0,-22.88 -18.54,-41.42 -41.41,-41.42 -22.87,0 -41.41,18.54 -41.41,41.42 0,22.87 18.54,41.41 41.41,41.41 22.87,0 41.41,-18.54 41.41,-41.41" /><path
         id="path118"
         style="fill:#f6f8f3;fill-opacity:1;fill-rule:nonzero;stroke:none"
         d="m 2351.94,5304.19 c 0,-11.44 -9.27,-20.72 -20.72,-20.72 -11.44,0 -20.72,9.28 -20.72,20.72 0,11.45 9.28,20.73 20.72,20.73 11.45,0 20.72,-9.28 20.72,-20.73" /><path
         id="path120"
         style="fill:#f29567;fill-opacity:1;fill-rule:nonzero;stroke:none"
         d="m 2465.52,4792.62 c -35.61,0 -64.58,28.98 -64.58,64.58 0,5.84 4.73,10.57 10.57,10.57 5.84,0 10.57,-4.73 10.57,-10.57 0,-23.95 19.48,-43.44 43.44,-43.44 23.96,0 43.44,19.49 43.44,43.44 0,5.84 4.73,10.57 10.57,10.57 5.84,0 10.57,-4.73 10.57,-10.57 0,-35.6 -28.97,-64.58 -64.58,-64.58" /><path
         id="path122"
         style="fill:#ffffff;fill-opacity:1;fill-rule:nonzero;stroke:none"
         d="m 625.832,5843.99 c 9.051,-250.56 249.641,-453.68 537.378,-453.68 287.73,0 520.99,184.88 520.99,412.95 0,228.06 -240.59,431.19 -537.38,453.68 -296.781,22.5 -530.035,-162.39 -520.988,-412.95" /><path
         id="path124"
         style="fill:#ffffff;fill-opacity:1;fill-rule:nonzero;stroke:none"
         d="m 1293.95,5569.49 c 0,0 144.23,-314.35 412.65,-315.89 0,0 -292.32,-47.72 -511.9,234.85 -219.571,282.57 99.25,81.04 99.25,81.04" /><path
         id="path126"
         style="fill:#2a3e6b;fill-opacity:1;fill-rule:nonzero;stroke:none"
         d="m 923.16,5736.7 c 3.613,-0.54 6.438,-1.92 8.485,-4.16 2.039,-2.25 2.949,-4.91 2.714,-8.02 -0.218,-2.86 -1.386,-5.31 -3.488,-7.36 -2.113,-2.05 -4.988,-2.95 -8.609,-2.67 l -12.446,0.94 c -16.578,1.26 -33.101,1.61 -49.562,1.03 -16.465,-0.57 -32.957,-1.54 -49.481,-2.89 -0.519,0.04 -0.906,0 -1.179,-0.11 -0.27,-0.11 -0.664,-0.14 -1.176,-0.1 -3.109,0.23 -5.824,1.48 -8.121,3.74 -2.313,2.26 -3.332,5.08 -3.078,8.44 0.375,4.92 2.683,7.88 6.926,8.86 4.242,0.98 8.718,1.55 13.421,1.71 1.016,6.44 1.883,12.82 2.633,19.16 0.735,6.32 1.344,12.61 1.817,18.82 1.097,14.51 1.695,29 1.789,43.45 0.093,14.46 0.125,28.92 0.09,43.39 -0.024,14.46 -0.059,28.93 -0.082,43.4 -0.036,14.47 0.371,28.96 1.23,43.49 -3.145,0.24 -6.746,0.52 -10.805,0.82 -4.066,0.31 -7.972,0.93 -11.718,1.88 -3.758,0.94 -6.805,2.37 -9.168,4.28 -2.356,1.9 -3.411,4.42 -3.168,7.59 0.257,3.42 1.832,6.15 4.718,8.18 2.891,2.03 6.02,2.93 9.399,2.67 6.988,-0.53 13.902,-1.32 20.734,-2.35 6.82,-1.05 13.606,-1.82 20.344,-2.33 14.25,-1.08 28.328,-1.83 42.246,-2.23 13.906,-0.4 27.988,-1.15 42.246,-2.23 2.59,-0.19 5.438,-0.41 8.547,-0.65 3.117,-0.23 5.937,-0.78 8.477,-1.64 2.539,-0.86 4.589,-2.2 6.14,-4.04 1.559,-1.84 2.219,-4.35 1.981,-7.5 -0.223,-2.91 -1.59,-5.39 -4.086,-7.45 -2.508,-2.07 -5.442,-2.97 -8.809,-2.71 -3.109,0.23 -6.156,0.53 -9.117,0.89 -2.977,0.35 -6.016,0.65 -9.125,0.88 -12.434,0.95 -24.953,1.64 -37.559,2.07 -12.617,0.43 -25.144,0.99 -37.601,1.68 -0.508,-13.51 -0.805,-26.91 -0.895,-40.19 -0.101,-13.29 -0.008,-26.59 0.285,-39.9 18.618,1.45 36.907,2.01 54.864,1.7 3.359,-0.26 6.199,-1.45 8.519,-3.58 2.321,-2.13 3.356,-4.75 3.117,-7.86 -0.293,-3.88 -2.925,-6.75 -7.875,-8.59 -4.972,-1.84 -10.855,-3.02 -17.671,-3.54 -6.821,-0.53 -13.93,-0.71 -21.348,-0.53 -7.41,0.16 -13.86,0.2 -19.344,0.09 0.109,-12.26 0.047,-24.3 -0.195,-36.14 -0.254,-11.84 -0.836,-23.85 -1.762,-36.02 -0.848,-11.15 -2.082,-22.27 -3.699,-33.35 11.258,0.71 22.496,1.16 33.719,1.36 11.218,0.19 22.531,-0.15 33.929,-1.01 2.078,-0.16 4.207,-0.32 6.414,-0.49 2.2,-0.17 4.328,-0.46 6.383,-0.88" /><path
         id="path128"
         style="fill:#2a3e6b;fill-opacity:1;fill-rule:nonzero;stroke:none"
         d="m 989.273,5835.27 c 6.457,-0.75 11.887,-1.36 16.277,-1.81 4.4,-0.48 8.79,-0.93 13.19,-1.39 4.39,-0.47 7.63,-0.78 9.7,-0.94 l 40.85,-2.7 c 1.29,-0.1 3.24,-0.25 5.83,-0.45 2.58,-0.19 5.3,-0.4 8.16,-0.62 3.91,-0.04 6.99,-0.59 9.25,-1.68 2.27,-1.08 4.07,-2.33 5.39,-3.72 1.33,-1.42 2.13,-2.84 2.41,-4.3 0.28,-1.45 0.38,-2.7 0.3,-3.74 -1.5,-2.49 -4.7,-4.33 -9.61,-5.52 -4.91,-1.19 -10.08,-1.58 -15.52,-1.16 -5.19,0.39 -10.36,0.98 -15.5,1.76 -5.17,0.78 -11.37,1.45 -18.62,2 -6.99,0.53 -12.58,0.75 -16.75,0.68 -4.18,-0.07 -9.12,0.11 -14.82,0.54 l -11.658,0.89 c -1.554,0.12 -4.019,0.36 -7.379,0.75 -3.359,0.38 -7.031,0.85 -11.031,1.42 -4,0.57 -7.851,1.24 -11.562,2.05 -3.723,0.81 -6.594,1.68 -8.606,2.61 -0.5,0.3 -0.859,0.71 -1.074,1.25 -0.219,0.54 -0.312,1.06 -0.27,1.6 0.372,4.91 1.102,7.73 2.204,8.42 1.882,0.9 5.058,1.58 9.531,2.02 4.461,0.44 10.898,1.12 19.308,2.04 z m 76.687,-55.85 c 5.18,-0.4 10.49,-0.87 15.92,-1.41 5.43,-0.53 9.39,-1.66 11.86,-3.38 0.48,-0.56 0.81,-1.34 1,-2.38 0.17,-1.05 0.23,-1.94 0.18,-2.7 -0.16,-2.05 -0.5,-4 -1.03,-5.87 -0.53,-1.88 -1.08,-3.05 -1.64,-3.52 -1.6,-0.39 -4.5,-0.87 -8.71,-1.45 -4.21,-0.57 -10.47,-0.55 -18.76,0.08 l -45.86,3.48 c -2.86,0.22 -5.91,0.32 -9.17,0.3 -3.26,-0.01 -6.69,0.25 -10.293,0.79 -1.555,0.11 -4.082,0.37 -7.57,0.76 -3.481,0.39 -7.36,0.88 -11.61,1.46 -4.261,0.58 -8.441,1.28 -12.543,2.1 -4.113,0.83 -7.433,1.72 -9.964,2.68 -1.227,1.12 -2.082,2.66 -2.582,4.61 -0.504,1.96 -0.563,3.81 -0.165,5.58 0.461,2.77 3.653,4.32 9.536,4.65 5.894,0.32 13.91,0.34 24.046,0.09 l 77.355,-5.87" /><path
         id="path130"
         style="fill:#2a3e6b;fill-opacity:1;fill-rule:nonzero;stroke:none"
         d="m 1193.08,5697.45 c -2.09,-1.66 -4.43,-2.4 -7.02,-2.21 -3.37,0.26 -5.79,1.82 -7.26,4.66 -1.49,2.85 -2.09,6.09 -1.81,9.72 l 0.26,3.5 c 0.55,7.25 0.94,15.82 1.18,25.71 0.23,9.88 0.06,19.86 -0.47,29.94 -0.54,10.07 -1.7,19.73 -3.46,29 -1.78,9.25 -4.39,17 -7.81,23.26 -3.72,2.63 -7.9,4.12 -12.57,4.47 -3.63,0.28 -7.07,-0.44 -10.32,-2.14 -3.26,-1.71 -6.05,-2.48 -8.39,-2.31 -2.85,0.22 -5.14,1.83 -6.87,4.83 -1.72,3 -2.46,6.18 -2.21,9.55 0.24,3.11 1.36,5.7 3.34,7.76 1.98,2.06 4.44,3.7 7.4,4.92 2.96,1.19 6.08,2.01 9.38,2.41 3.28,0.4 6.34,0.49 9.2,0.28 13.47,-1.03 23.16,-6.45 29.06,-16.28 5.9,-9.84 10.22,-24.23 12.94,-43.2 2.51,5.54 4.79,10.83 6.88,15.89 2.08,5.05 4.27,9.84 6.56,14.36 2.3,4.52 4.9,8.68 7.79,12.5 2.89,3.82 6.66,7.13 11.31,9.9 l 12.44,-0.95 c 2.07,-0.15 4.25,-1.5 6.53,-4.01 2.29,-2.53 3.99,-4.99 5.1,-7.43 l 8.58,-20.97 c 1.69,5.07 3.76,10.13 6.23,15.16 l 7.32,8.82 c 1.13,1.22 3.53,2.02 7.21,2.39 3.68,0.37 6.68,0.47 9.02,0.29 l 1.55,-0.11 18.76,-10.41 c 5.24,-6.4 9,-13.46 11.29,-21.2 2.28,-7.73 3.83,-15.72 4.63,-23.99 0.8,-8.27 1.08,-16.77 0.8,-25.48 -0.27,-8.71 -0.32,-17.12 -0.15,-25.2 0.29,-13.31 0.22,-26.21 -0.2,-38.68 -0.43,-12.49 -0.88,-25.35 -1.36,-38.61 -0.34,-4.4 -1.63,-7.63 -3.86,-9.67 -2.26,-2.04 -4.93,-2.95 -8.03,-2.71 -2.59,0.2 -4.85,1.34 -6.77,3.44 -1.93,2.11 -2.74,5.1 -2.45,8.98 0.44,12.74 1.07,25.27 1.87,37.58 0.8,12.32 0.68,25.17 -0.4,38.54 -0.52,6.82 -0.56,14.05 -0.11,21.71 0.45,7.65 0.57,15.14 0.34,22.45 -0.22,7.3 -1.34,14.18 -3.33,20.58 -1.99,6.4 -5.56,11.76 -10.7,16.05 -6.52,-3.4 -11.74,-9.52 -15.67,-18.35 -3.92,-8.82 -6.93,-18.5 -9.03,-29.02 -2.11,-10.53 -3.63,-21.17 -4.58,-31.9 -0.94,-10.75 -1.84,-20 -2.69,-27.75 l -2.35,-10.38 c -1.85,-7.15 -5.62,-10.52 -11.32,-10.09 -2.86,0.22 -5.22,1.63 -7.11,4.26 -1.89,2.62 -2.69,5.74 -2.41,9.37 l 0.23,3.1 c 0.32,4.15 0.71,8.49 1.19,13.01 0.47,4.52 0.89,9.25 1.27,14.17 1.06,14 1.43,28.43 1.13,43.31 -0.3,14.87 -2.96,28.77 -7.98,41.65 -5.37,-5.58 -9.81,-12.42 -13.28,-20.49 -3.48,-8.08 -6.54,-16.64 -9.18,-25.69 -2.64,-9.06 -4.89,-18.13 -6.76,-27.24 -1.87,-9.12 -3.85,-17.24 -5.96,-24.37 l -2.71,-9.97 c -0.74,-2.8 -2.13,-5.05 -4.21,-6.71" /><path
         id="path132"
         style="fill:#2a3e6b;fill-opacity:1;fill-rule:nonzero;stroke:none"
         d="m 1474.18,5803.55 c 1.4,-2.19 2.03,-4.19 1.89,-6 -0.21,-2.86 -1.65,-5.35 -4.28,-7.49 -2.65,-2.15 -5.39,-3.11 -8.24,-2.9 -3.1,0.24 -5.46,1.85 -7.05,4.84 -1.79,4.04 -4.42,7.11 -7.91,9.2 -3.49,2.08 -7.31,3.29 -11.45,3.6 -7,0.53 -13.35,-0.69 -19.04,-3.66 -5.7,-2.96 -10.49,-6.85 -14.38,-11.66 -3.88,-4.8 -6.97,-10.19 -9.24,-16.17 -2.27,-5.97 -3.63,-11.82 -4.06,-17.54 -0.4,-5.21 -0.05,-10.86 1.05,-16.95 1.1,-6.11 3.02,-11.88 5.73,-17.31 2.71,-5.45 6.39,-10.1 11.05,-13.99 4.66,-3.88 10.49,-6.09 17.48,-6.62 8.56,-0.65 16.43,1.85 23.64,7.49 7.2,5.64 12.55,12.54 16.03,20.7 2.41,4.3 5.69,6.29 9.83,5.97 3.63,-0.27 6.27,-1.58 7.92,-3.92 1.64,-2.34 2.38,-4.68 2.21,-7 -0.06,-0.79 -0.19,-1.55 -0.37,-2.33 -0.2,-0.76 -0.46,-1.66 -0.8,-2.67 -5.61,-12.09 -14.16,-21.8 -25.66,-29.13 -11.51,-7.34 -23.86,-10.51 -37.08,-9.51 -8.81,0.67 -16.61,3.61 -23.37,8.82 -6.78,5.2 -12.41,11.62 -16.91,19.27 -4.51,7.63 -7.78,15.89 -9.85,24.78 -2.06,8.89 -2.79,17.35 -2.18,25.38 0.67,8.81 2.82,17.38 6.45,25.71 3.62,8.32 8.48,15.63 14.56,21.95 6.08,6.32 13.23,11.25 21.46,14.79 8.22,3.55 17.11,4.96 26.7,4.23 7.25,-0.55 14.08,-2.57 20.46,-6.05 6.38,-3.48 11.52,-8.75 15.41,-15.83" /><path
         id="path134"
         style="fill:#2a3e6b;fill-opacity:1;fill-rule:nonzero;stroke:none"
         d="m 1569.09,5978.11 c 1.75,-2.45 2.86,-4.98 3.32,-7.61 0.45,-2.62 0.54,-5.33 0.27,-8.12 -0.26,-2.79 -0.61,-5.55 -1.05,-8.29 -0.44,-2.74 -0.58,-5.39 -0.37,-7.93 -0.87,-2.23 -1.97,-4.14 -3.32,-5.75 -1.34,-1.61 -2.66,-3.12 -3.95,-4.56 -1.29,-1.42 -2.52,-2.96 -3.69,-4.63 -1.17,-1.65 -2.1,-3.63 -2.78,-5.91 -9.14,-8.73 -18.24,-17.52 -27.32,-26.36 -9.07,-8.86 -17.1,-18.54 -24.09,-29.07 3.26,-0.61 6.81,-0.87 10.67,-0.78 3.85,0.09 7.67,-0.1 11.45,-0.57 3.79,-0.48 7.35,-1.49 10.7,-3.07 3.36,-1.58 6.1,-4.23 8.24,-7.94 0.42,-0.52 0.76,-1.13 1.01,-1.88 0.26,-0.75 0.82,-1.25 1.7,-1.52 -0.73,-1.12 -1.76,-2.15 -3.08,-3.08 -1.34,-0.95 -2.22,-2.12 -2.64,-3.52 -0.31,-1.06 -0.05,-2.09 0.79,-3.11 l -0.47,-1.58 c -4.12,-0.29 -8.12,-0.09 -12.03,0.6 -3.91,0.71 -7.77,1.34 -11.62,1.92 -3.84,0.59 -7.73,0.89 -11.64,0.92 -3.92,0.03 -7.91,-0.68 -11.98,-2.14 -1.69,0.12 -3.41,0.12 -5.17,-0.02 -1.77,-0.14 -3.57,0.26 -5.39,1.19 -2.93,2.99 -4.63,6.22 -5.11,9.72 -0.48,3.49 -1.15,7 -2.01,10.51 3.46,8.33 7.65,16.21 12.56,23.63 4.92,7.42 10.24,14.48 15.99,21.17 5.75,6.69 11.73,13.22 17.95,19.58 6.22,6.36 12.31,12.75 18.26,19.19 2.17,0.88 3.9,2.13 5.15,3.76 1.26,1.63 2.28,3.43 3.06,5.4 0.78,1.97 1.45,4.02 1.99,6.15 0.54,2.13 1.14,4.25 1.78,6.36 -1.11,2.05 -2.83,3.67 -5.15,4.85 -2.33,1.18 -4.68,1.64 -7.04,1.39 -6.36,-0.76 -12.59,-2.05 -18.68,-3.85 -6.1,-1.8 -12.33,-3.75 -18.7,-5.86 -2.21,0.29 -3.94,1.05 -5.19,2.29 -1.26,1.23 -2.31,2.7 -3.14,4.38 -0.82,1.69 -1.55,3.43 -2.15,5.24 -0.6,1.81 -1.45,3.45 -2.54,4.93 7.96,7.37 17.07,11.9 27.35,13.59 10.27,1.69 20.33,0.48 30.2,-3.64 1.2,-1.69 2.6,-3.12 4.16,-4.26 1.57,-1.14 3.2,-2.25 4.89,-3.33 1.68,-1.08 3.28,-2.29 4.8,-3.6 1.52,-1.32 2.86,-2.92 4.01,-4.79" /><path
         id="path136"
         style="fill:#fda26e;fill-opacity:1;fill-rule:nonzero;stroke:none"
         d="m 3539.66,4908.28 c 0.57,-16.41 -7.78,-31.85 -21.82,-40.35 l -92.67,-74.48 c -19.56,-11.76 -44.97,-5.48 -56.85,14.08 l -35.49,22.67 c -11.82,19.5 13.58,86.16 33.08,97.98 l 83.13,68.5 c 6.31,3.8 12.92,6.64 19.67,8.57 27.87,7.96 55.64,-13.37 56.65,-42.34 l 14.3,-54.63" /><path
         id="path138"
         style="fill:#fda26e;fill-opacity:1;fill-rule:nonzero;stroke:none"
         d="m 3391.52,4885.7 v 0 c -23.94,13.19 -61.7,-2.54 -19.46,67.22 l 38.99,70.74 c 2.53,4.61 8.33,6.28 12.93,3.74 v 0 c 19.33,-10.65 26.37,-34.96 15.72,-54.29 l -48.18,-87.41" /><path
         id="path140"
         style="fill:#ffffff;fill-opacity:1;fill-rule:nonzero;stroke:none"
         d="m 3455.81,4810.28 -208.22,-391.62 c -25.74,-48.34 -86.48,-65.67 -133.87,-38.08 -47.31,27.57 -62.17,89 -32.81,135.19 l 235.39,369.91 139.51,-75.4" /><path
         id="path142"
         style="fill:#fda26e;fill-opacity:1;fill-rule:nonzero;stroke:none"
         d="m 1314.61,4363.97 c 12,-11.2 29.12,-15.04 44.76,-10.03 l 117.02,20.97 c 21.72,7.03 33.67,30.32 26.72,52.12 l 6.21,41.65 c -6.95,21.72 -73.9,46.34 -95.62,39.4 l -106.25,-17.72 c -7.01,-2.26 -13.5,-5.38 -19.38,-9.2 -24.31,-15.79 -26.46,-50.74 -5.27,-70.52 l 31.81,-46.67" /><path
         id="path144"
         style="fill:#fda26e;fill-opacity:1;fill-rule:nonzero;stroke:none"
         d="m 1428.92,4460.87 v 0 c 5.77,26.71 42.44,44.87 -37.92,58.82 l -78.95,17.05 c -5.14,1.11 -10.21,-2.16 -11.32,-7.3 v 0 c -4.66,-21.57 9.06,-42.84 30.63,-47.5 l 97.56,-21.07" /><path
         id="path146"
         style="fill:#ffffff;fill-opacity:1;fill-rule:nonzero;stroke:none"
         d="m 1443.58,4362.86 432.08,-100.14 c 53.36,-12.33 106.32,22.1 116.64,75.95 10.27,53.79 -26.3,105.34 -80.42,113.53 l -433.55,65.38 -34.75,-154.72" /><path
         id="path148"
         style="fill:#641d0e;fill-opacity:1;fill-rule:nonzero;stroke:none"
         d="m 3431.39,4642.99 c 6.91,-0.49 12.88,4.77 13.26,11.69 l 68.61,1249.39 c 0.13,3.67 -2.7,6.81 -6.38,7.01 -3.74,0.21 -6.93,-2.64 -7.14,-6.38 l -79.85,-1248.55 c -0.43,-6.8 4.7,-12.68 11.5,-13.16 v 0" /><path
         id="path150"
         style="fill:#fda26e;fill-opacity:1;fill-rule:nonzero;stroke:none"
         d="m 3524.08,4928.18 c 0,-42.56 -23.71,-50.92 -52.96,-50.92 -29.25,0 -52.96,8.36 -52.96,50.92 0,42.56 23.71,77.07 52.96,77.07 29.25,0 52.96,-34.51 52.96,-77.07" /></g></g></svg>